<svg width="2739" height="2739" viewBox="0 0 2739 2739" fill="none" xmlns="http://www.w3.org/2000/svg">
<rect width="2739" height="2739" fill="#060605"/>
<path d="M1367.5 1369.5H2663.5V2663.5H1367.5V1369.5Z" fill="white"/>
<path d="M1367.5 75.5H2663.5V1369.5H1367.5V75.5Z" fill="white"/>
<path d="M75.5 75.5H1367.5V2663.5H75.5V75.5Z" fill="white"/>
<path d="M953.3 1192.6L840.5 827.8L729.3 1192.6H650.9L507.7 713.4L458.9 708.6V665.4H706.9V708.6L648.5 715L730.1 1039L826.1 715.8L767.7 708.6V665.4H1007.7V708.6L937.3 717.4L1030.1 1043L1122.1 717.4L1066.1 708.6V665.4H1234.9V708.6L1172.5 719L1031.7 1192.6H953.3Z" fill="black"/>
<path d="M1494.9 1191V1147.8L1572.5 1138.2V716.6L1502.1 708.6V665.4H1713.3L1843.7 1017.4L1966.1 665.4H2168.5V708.6L2111.7 715C2110.63 748.067 2110.1 781.133 2110.1 814.2C2110.1 846.733 2110.1 879.8 2110.1 913.4V943C2110.1 976.6 2110.1 1009.93 2110.1 1043C2110.1 1075.53 2110.63 1108.33 2111.7 1141.4L2170.9 1147.8V1191H1915.7V1147.8L1974.1 1140.6C1975.17 1108.07 1975.43 1076.6 1974.9 1046.2C1974.9 1015.27 1975.17 986.467 1975.7 959.8L1977.3 783L1834.9 1191H1773.3L1622.1 784.6C1622.63 813.4 1623.17 841.933 1623.7 870.2C1624.23 897.933 1624.5 921.933 1624.5 942.2V1137.4L1690.1 1147.8V1191H1494.9Z" fill="black"/>
<rect x="1355.5" y="71.5" width="12" height="2592" fill="black"/>
<rect x="2657.5" y="1361.5" width="12" height="1297" transform="rotate(90 2657.5 1361.5)" fill="black"/>
<rect x="1225.5" y="1490" width="284" height="317.5" fill="white"/>
<path d="M394.4 1656.58V1645.02C394.4 1630.97 394.4 1616.91 394.4 1602.86C394.4 1588.81 394.173 1574.75 393.72 1560.7L368.22 1557.98V1539.62H469.2C487.333 1539.62 503.54 1542.23 517.82 1547.44C532.1 1552.43 544.227 1559.79 554.2 1569.54C564.173 1579.06 571.767 1590.73 576.98 1604.56C582.42 1618.16 585.14 1633.57 585.14 1650.8C585.14 1668.48 582.193 1684.35 576.3 1698.4C570.633 1712.23 562.473 1723.9 551.82 1733.42C541.393 1742.94 528.587 1750.31 513.4 1755.52C498.44 1760.51 481.667 1763 463.08 1763H368.22V1744.64L393.72 1741.92C394.173 1728.09 394.4 1714.15 394.4 1700.1C394.4 1685.82 394.4 1671.31 394.4 1656.58ZM451.52 1656.24C451.52 1671.2 451.52 1685.93 451.52 1700.44C451.52 1714.72 451.747 1729 452.2 1743.28H463.42C482.913 1743.28 498.213 1735.35 509.32 1719.48C520.653 1703.61 526.32 1680.83 526.32 1651.14C526.32 1620.99 520.653 1598.21 509.32 1582.8C498.213 1567.16 483.027 1559.34 463.76 1559.34H452.2C451.747 1573.62 451.52 1587.9 451.52 1602.18C451.52 1616.23 451.52 1630.51 451.52 1645.02V1656.24ZM706.841 1657.6V1645.02C706.841 1630.97 706.841 1616.91 706.841 1602.86C706.841 1588.81 706.615 1574.75 706.161 1560.7L680.661 1557.98V1539.62H854.061L856.441 1598.1H828.221L821.421 1558.66H764.641C764.188 1571.58 763.961 1584.61 763.961 1597.76C763.961 1610.91 763.961 1624.17 763.961 1637.54H800.681L804.761 1611.02H824.481V1684.12H804.761L800.681 1657.6H763.961C763.961 1673.24 763.961 1688.09 763.961 1702.14C763.961 1716.19 764.188 1730.13 764.641 1743.96H828.221L835.021 1704.52H863.241L860.861 1763H680.661V1744.64L706.161 1741.92C706.615 1728.09 706.841 1714.15 706.841 1700.1C706.841 1686.05 706.841 1671.88 706.841 1657.6ZM981.763 1657.6V1645.02C981.763 1630.97 981.763 1616.91 981.763 1602.86C981.763 1588.81 981.537 1574.75 981.083 1560.7L955.583 1557.98V1539.62H1066.08C1092.83 1539.62 1113.34 1544.61 1127.62 1554.58C1142.13 1564.55 1149.38 1578.38 1149.38 1596.06C1149.38 1601.73 1148.36 1607.39 1146.32 1613.06C1144.28 1618.73 1140.88 1624.05 1136.12 1629.04C1131.36 1633.8 1125.02 1637.99 1117.08 1641.62C1109.38 1645.25 1099.86 1647.97 1088.52 1649.78C1098.04 1651.14 1105.98 1653.29 1112.32 1656.24C1118.9 1658.96 1124.22 1662.59 1128.3 1667.12C1132.38 1671.65 1135.44 1676.98 1137.48 1683.1C1139.75 1689.22 1141.56 1696.25 1142.92 1704.18L1149.38 1741.92L1175.22 1744.64V1763C1171.14 1763.91 1167.63 1764.7 1164.68 1765.38C1161.74 1766.06 1158.9 1766.51 1156.18 1766.74C1153.46 1767.19 1150.63 1767.42 1147.68 1767.42C1144.96 1767.65 1141.68 1767.76 1137.82 1767.76C1123.32 1767.76 1111.87 1765.38 1103.48 1760.62C1095.32 1755.63 1090.34 1746.45 1088.52 1733.08L1082.4 1693.64C1080.59 1682.08 1077.3 1673.69 1072.54 1668.48C1067.78 1663.04 1060.3 1660.32 1050.1 1660.32H1037.86C1037.86 1675.05 1037.86 1689.11 1037.86 1702.48C1037.86 1715.63 1038.09 1728.77 1038.54 1741.92L1065.06 1744.64V1763H955.583V1744.64L981.083 1741.92C981.537 1728.09 981.763 1714.15 981.763 1700.1C981.763 1686.05 981.763 1671.88 981.763 1657.6ZM1052.14 1559.34H1038.54C1038.09 1573.62 1037.86 1587.67 1037.86 1601.5C1037.86 1615.33 1037.86 1628.59 1037.86 1641.28H1050.78C1059.17 1641.28 1066.2 1640.15 1071.86 1637.88C1077.53 1635.61 1082.06 1632.55 1085.46 1628.7C1088.86 1624.85 1091.24 1620.43 1092.6 1615.44C1094.19 1610.45 1094.98 1605.24 1094.98 1599.8C1094.98 1585.97 1091.36 1575.77 1084.1 1569.2C1076.85 1562.63 1066.2 1559.34 1052.14 1559.34ZM1286.57 1645.02C1286.57 1630.74 1286.57 1616.69 1286.57 1602.86C1286.57 1588.81 1286.34 1574.75 1285.89 1560.7L1260.39 1557.98V1539.62H1372.59V1557.98L1344.37 1560.7C1343.91 1574.75 1343.69 1588.81 1343.69 1602.86C1343.69 1616.69 1343.69 1630.74 1343.69 1645.02V1663.04C1343.69 1675.28 1343.69 1688.2 1343.69 1701.8C1343.69 1715.4 1343.91 1729.34 1344.37 1743.62H1402.85L1412.37 1696.36H1439.91L1436.51 1763H1260.39V1744.64L1285.89 1741.92C1286.34 1728.09 1286.57 1714.61 1286.57 1701.46C1286.57 1688.31 1286.57 1676.07 1286.57 1664.74V1645.02ZM1522.17 1763V1744.64L1549.71 1740.56L1618.73 1539.28H1653.75L1723.45 1742.94L1744.19 1745.32V1763H1639.13V1745.32L1665.31 1741.92L1651.71 1698.06H1583.03L1569.43 1740.56L1595.27 1744.64V1763H1522.17ZM1645.25 1678.34L1617.71 1591.3L1589.49 1678.34H1645.25ZM1830.78 1763V1744.64L1859.68 1740.56V1566.48L1854.92 1560.02L1831.46 1557.98V1539.62H1908.3L2008.26 1676.98V1562.4L1969.5 1557.98V1539.62H2058.92V1557.98L2030.02 1562.4V1763.68H2001.46L1881.78 1597.42V1740.22L1920.54 1744.64V1763H1830.78ZM2178.74 1656.58V1645.02C2178.74 1630.97 2178.74 1616.91 2178.74 1602.86C2178.74 1588.81 2178.51 1574.75 2178.06 1560.7L2152.56 1557.98V1539.62H2253.54C2271.67 1539.62 2287.88 1542.23 2302.16 1547.44C2316.44 1552.43 2328.56 1559.79 2338.54 1569.54C2348.51 1579.06 2356.1 1590.73 2361.32 1604.56C2366.76 1618.16 2369.48 1633.57 2369.48 1650.8C2369.48 1668.48 2366.53 1684.35 2360.64 1698.4C2354.97 1712.23 2346.81 1723.9 2336.16 1733.42C2325.73 1742.94 2312.92 1750.31 2297.74 1755.52C2282.78 1760.51 2266 1763 2247.42 1763H2152.56V1744.64L2178.06 1741.92C2178.51 1728.09 2178.74 1714.15 2178.74 1700.1C2178.74 1685.82 2178.74 1671.31 2178.74 1656.58ZM2235.86 1656.24C2235.86 1671.2 2235.86 1685.93 2235.86 1700.44C2235.86 1714.72 2236.08 1729 2236.54 1743.28H2247.76C2267.25 1743.28 2282.55 1735.35 2293.66 1719.48C2304.99 1703.61 2310.66 1680.83 2310.66 1651.14C2310.66 1620.99 2304.99 1598.21 2293.66 1582.8C2282.55 1567.16 2267.36 1559.34 2248.1 1559.34H2236.54C2236.08 1573.62 2235.86 1587.9 2235.86 1602.18C2235.86 1616.23 2235.86 1630.51 2235.86 1645.02V1656.24Z" fill="black"/>
</svg>
